<mxfile host="app.diagrams.net" modified="2024-04-24T12:08:06.598Z" agent="Mozilla/5.0 (Windows NT 10.0; Win64; x64) AppleWebKit/537.36 (KHTML, like Gecko) Chrome/124.0.0.0 Safari/537.36" etag="6gCdTyjjX6x_1B03y75H" version="24.2.9" type="google">
  <diagram name="Página-1" id="1cMrYkO7w7l_Yk92kkjM">
    <mxGraphModel grid="1" page="1" gridSize="10" guides="1" tooltips="1" connect="1" arrows="1" fold="1" pageScale="1" pageWidth="827" pageHeight="1169" math="0" shadow="0">
      <root>
        <mxCell id="0" />
        <mxCell id="1" parent="0" />
        <mxCell id="OvYUNzPaHA7GMRxogHSq-8" style="edgeStyle=orthogonalEdgeStyle;rounded=0;orthogonalLoop=1;jettySize=auto;html=1;entryX=0;entryY=0.5;entryDx=0;entryDy=0;" edge="1" parent="1" source="OvYUNzPaHA7GMRxogHSq-1" target="OvYUNzPaHA7GMRxogHSq-2">
          <mxGeometry relative="1" as="geometry" />
        </mxCell>
        <mxCell id="OvYUNzPaHA7GMRxogHSq-9" style="rounded=0;orthogonalLoop=1;jettySize=auto;html=1;entryX=0;entryY=0;entryDx=0;entryDy=0;" edge="1" parent="1" source="OvYUNzPaHA7GMRxogHSq-1" target="OvYUNzPaHA7GMRxogHSq-6">
          <mxGeometry relative="1" as="geometry" />
        </mxCell>
        <mxCell id="OvYUNzPaHA7GMRxogHSq-32" style="rounded=0;orthogonalLoop=1;jettySize=auto;html=1;entryX=0;entryY=1;entryDx=0;entryDy=0;" edge="1" parent="1" source="OvYUNzPaHA7GMRxogHSq-1" target="OvYUNzPaHA7GMRxogHSq-31">
          <mxGeometry relative="1" as="geometry" />
        </mxCell>
        <mxCell id="OvYUNzPaHA7GMRxogHSq-1" value="Jogador" style="shape=umlActor;verticalLabelPosition=bottom;verticalAlign=top;html=1;" vertex="1" parent="1">
          <mxGeometry x="90" y="290" width="30" height="60" as="geometry" />
        </mxCell>
        <mxCell id="OvYUNzPaHA7GMRxogHSq-10" style="rounded=0;orthogonalLoop=1;jettySize=auto;html=1;exitX=0.5;exitY=0;exitDx=0;exitDy=0;entryX=0.5;entryY=1;entryDx=0;entryDy=0;dashed=1;" edge="1" parent="1" source="OvYUNzPaHA7GMRxogHSq-19" target="OvYUNzPaHA7GMRxogHSq-3">
          <mxGeometry relative="1" as="geometry" />
        </mxCell>
        <mxCell id="OvYUNzPaHA7GMRxogHSq-14" value="&amp;lt;&amp;lt;extends&amp;gt;&amp;gt;" style="edgeLabel;html=1;align=center;verticalAlign=middle;resizable=0;points=[];" connectable="0" vertex="1" parent="OvYUNzPaHA7GMRxogHSq-10">
          <mxGeometry x="0.028" y="-1" relative="1" as="geometry">
            <mxPoint as="offset" />
          </mxGeometry>
        </mxCell>
        <mxCell id="OvYUNzPaHA7GMRxogHSq-15" style="rounded=0;orthogonalLoop=1;jettySize=auto;html=1;exitX=0.5;exitY=1;exitDx=0;exitDy=0;entryX=0.5;entryY=0;entryDx=0;entryDy=0;dashed=1;" edge="1" parent="1" source="OvYUNzPaHA7GMRxogHSq-19" target="OvYUNzPaHA7GMRxogHSq-4">
          <mxGeometry relative="1" as="geometry" />
        </mxCell>
        <mxCell id="OvYUNzPaHA7GMRxogHSq-16" value="&amp;lt;&amp;lt;extends&amp;gt;&amp;gt;" style="edgeLabel;html=1;align=center;verticalAlign=middle;resizable=0;points=[];" connectable="0" vertex="1" parent="OvYUNzPaHA7GMRxogHSq-15">
          <mxGeometry x="-0.0262" relative="1" as="geometry">
            <mxPoint x="1" as="offset" />
          </mxGeometry>
        </mxCell>
        <mxCell id="OvYUNzPaHA7GMRxogHSq-20" style="edgeStyle=orthogonalEdgeStyle;rounded=0;orthogonalLoop=1;jettySize=auto;html=1;entryX=0;entryY=0.5;entryDx=0;entryDy=0;dashed=1;" edge="1" parent="1" source="OvYUNzPaHA7GMRxogHSq-2" target="OvYUNzPaHA7GMRxogHSq-19">
          <mxGeometry relative="1" as="geometry" />
        </mxCell>
        <mxCell id="OvYUNzPaHA7GMRxogHSq-21" value="&amp;lt;&amp;lt;includes&amp;gt;&amp;gt;" style="edgeLabel;html=1;align=center;verticalAlign=middle;resizable=0;points=[];" connectable="0" vertex="1" parent="OvYUNzPaHA7GMRxogHSq-20">
          <mxGeometry x="0.1" relative="1" as="geometry">
            <mxPoint as="offset" />
          </mxGeometry>
        </mxCell>
        <mxCell id="OvYUNzPaHA7GMRxogHSq-2" value="Jogar dados" style="ellipse;whiteSpace=wrap;html=1;" vertex="1" parent="1">
          <mxGeometry x="260" y="285" width="140" height="70" as="geometry" />
        </mxCell>
        <mxCell id="OvYUNzPaHA7GMRxogHSq-3" value="Pagar Aluguel" style="ellipse;whiteSpace=wrap;html=1;" vertex="1" parent="1">
          <mxGeometry x="510" y="150" width="140" height="70" as="geometry" />
        </mxCell>
        <mxCell id="OvYUNzPaHA7GMRxogHSq-17" style="edgeStyle=orthogonalEdgeStyle;rounded=0;orthogonalLoop=1;jettySize=auto;html=1;entryX=0.5;entryY=0;entryDx=0;entryDy=0;dashed=1;" edge="1" parent="1" source="OvYUNzPaHA7GMRxogHSq-4" target="OvYUNzPaHA7GMRxogHSq-5">
          <mxGeometry relative="1" as="geometry" />
        </mxCell>
        <mxCell id="OvYUNzPaHA7GMRxogHSq-18" value="&amp;lt;&amp;lt;extends&amp;gt;&amp;gt;" style="edgeLabel;html=1;align=center;verticalAlign=middle;resizable=0;points=[];" connectable="0" vertex="1" parent="OvYUNzPaHA7GMRxogHSq-17">
          <mxGeometry x="0.0333" y="-2" relative="1" as="geometry">
            <mxPoint as="offset" />
          </mxGeometry>
        </mxCell>
        <mxCell id="OvYUNzPaHA7GMRxogHSq-4" value="Comprar Terreno" style="ellipse;whiteSpace=wrap;html=1;" vertex="1" parent="1">
          <mxGeometry x="510" y="420" width="140" height="70" as="geometry" />
        </mxCell>
        <mxCell id="OvYUNzPaHA7GMRxogHSq-5" value="Fazer Negócio" style="ellipse;whiteSpace=wrap;html=1;" vertex="1" parent="1">
          <mxGeometry x="510" y="550" width="140" height="70" as="geometry" />
        </mxCell>
        <mxCell id="OvYUNzPaHA7GMRxogHSq-6" value="Comprar Casa" style="ellipse;whiteSpace=wrap;html=1;" vertex="1" parent="1">
          <mxGeometry x="260" y="420" width="140" height="70" as="geometry" />
        </mxCell>
        <mxCell id="OvYUNzPaHA7GMRxogHSq-23" style="edgeStyle=orthogonalEdgeStyle;rounded=0;orthogonalLoop=1;jettySize=auto;html=1;entryX=0;entryY=0.5;entryDx=0;entryDy=0;dashed=1;" edge="1" parent="1" source="OvYUNzPaHA7GMRxogHSq-19" target="OvYUNzPaHA7GMRxogHSq-22">
          <mxGeometry relative="1" as="geometry" />
        </mxCell>
        <mxCell id="OvYUNzPaHA7GMRxogHSq-24" value="&amp;lt;&amp;lt;extends&amp;gt;&amp;gt;" style="edgeLabel;html=1;align=center;verticalAlign=middle;resizable=0;points=[];" connectable="0" vertex="1" parent="OvYUNzPaHA7GMRxogHSq-23">
          <mxGeometry x="-0.0462" y="-1" relative="1" as="geometry">
            <mxPoint as="offset" />
          </mxGeometry>
        </mxCell>
        <mxCell id="OvYUNzPaHA7GMRxogHSq-27" style="rounded=0;orthogonalLoop=1;jettySize=auto;html=1;exitX=1;exitY=1;exitDx=0;exitDy=0;entryX=0;entryY=0;entryDx=0;entryDy=0;dashed=1;" edge="1" parent="1" source="OvYUNzPaHA7GMRxogHSq-19" target="OvYUNzPaHA7GMRxogHSq-26">
          <mxGeometry relative="1" as="geometry" />
        </mxCell>
        <mxCell id="OvYUNzPaHA7GMRxogHSq-28" value="&amp;lt;&amp;lt;extends&amp;gt;&amp;gt;" style="edgeLabel;html=1;align=center;verticalAlign=middle;resizable=0;points=[];" connectable="0" vertex="1" parent="OvYUNzPaHA7GMRxogHSq-27">
          <mxGeometry x="-0.0117" y="-2" relative="1" as="geometry">
            <mxPoint as="offset" />
          </mxGeometry>
        </mxCell>
        <mxCell id="OvYUNzPaHA7GMRxogHSq-19" value="Mover Peão" style="ellipse;whiteSpace=wrap;html=1;" vertex="1" parent="1">
          <mxGeometry x="510" y="285" width="140" height="70" as="geometry" />
        </mxCell>
        <mxCell id="OvYUNzPaHA7GMRxogHSq-29" style="edgeStyle=orthogonalEdgeStyle;rounded=0;orthogonalLoop=1;jettySize=auto;html=1;entryX=0.5;entryY=0;entryDx=0;entryDy=0;dashed=1;" edge="1" parent="1" source="OvYUNzPaHA7GMRxogHSq-22" target="OvYUNzPaHA7GMRxogHSq-26">
          <mxGeometry relative="1" as="geometry" />
        </mxCell>
        <mxCell id="OvYUNzPaHA7GMRxogHSq-30" value="&amp;lt;&amp;lt;extends&amp;gt;&amp;gt;" style="edgeLabel;html=1;align=center;verticalAlign=middle;resizable=0;points=[];" connectable="0" vertex="1" parent="OvYUNzPaHA7GMRxogHSq-29">
          <mxGeometry x="-0.0462" y="1" relative="1" as="geometry">
            <mxPoint as="offset" />
          </mxGeometry>
        </mxCell>
        <mxCell id="OvYUNzPaHA7GMRxogHSq-22" value="Sorte e Revés" style="ellipse;whiteSpace=wrap;html=1;" vertex="1" parent="1">
          <mxGeometry x="780" y="285" width="140" height="70" as="geometry" />
        </mxCell>
        <mxCell id="OvYUNzPaHA7GMRxogHSq-26" value="Ir pra cadeia" style="ellipse;whiteSpace=wrap;html=1;" vertex="1" parent="1">
          <mxGeometry x="780" y="420" width="140" height="70" as="geometry" />
        </mxCell>
        <mxCell id="OvYUNzPaHA7GMRxogHSq-31" value="Hipotecar" style="ellipse;whiteSpace=wrap;html=1;" vertex="1" parent="1">
          <mxGeometry x="260" y="150" width="140" height="70" as="geometry" />
        </mxCell>
      </root>
    </mxGraphModel>
  </diagram>
</mxfile>
